<svg width="208" height="37" viewBox="0 0 208 37" fill="none" xmlns="http://www.w3.org/2000/svg">
<path d="M198.749 21V6.64557H200.849V9.35696C201.46 7.44303 202.896 6.43291 204.943 6.43291C205.926 6.43291 206.777 6.61898 207.335 6.96455L206.431 9.03797C206.033 8.77215 205.448 8.58607 204.677 8.58607C202.284 8.58607 200.902 9.96835 200.902 13.1316V21H198.749Z" fill="white"/>
<path d="M188.244 21.2924C183.646 21.2924 180.668 18.076 180.668 13.8759C180.668 9.64937 183.858 6.35316 188.165 6.35316C192.365 6.35316 195.475 9.41013 195.475 13.6633V14.6468H182.795C183.114 17.3848 185.214 19.3253 188.244 19.3253C190.53 19.3253 192.072 18.3152 193.056 16.5608L194.916 17.6506C193.454 19.9367 191.381 21.2924 188.244 21.2924ZM188.165 8.29367C185.427 8.29367 183.327 10.181 182.848 12.7329H193.242C192.896 10.0215 190.956 8.29367 188.165 8.29367Z" fill="white"/>
<path d="M172.548 21.2924C169.411 21.2924 167.364 20.1228 166.088 18.2886L167.976 17.0127C168.959 18.4215 170.421 19.3519 172.601 19.3519C174.834 19.3519 176.004 18.2886 176.004 16.8532C176.004 15.2582 174.036 14.9392 171.936 14.5139C169.464 14.0354 166.833 13.3709 166.833 10.5C166.833 8.26708 168.773 6.29999 172.176 6.32658C174.834 6.32658 176.642 7.31012 177.917 8.87847L176.11 10.1013C175.259 8.95822 174.01 8.18734 172.176 8.18734C169.969 8.18734 169.066 9.1443 169.066 10.4734C169.066 11.962 170.793 12.2544 173.026 12.7063C175.499 13.1848 178.21 13.8759 178.21 16.8266C178.21 19.0861 176.296 21.319 172.548 21.2924Z" fill="white"/>
<path d="M146.787 21L142.082 6.64557H144.368L147.983 18.0228L152.369 6.64557H154.389L158.669 17.943L162.417 6.64557H164.677L159.706 21H157.739L153.326 9.62278L148.913 21H146.787Z" fill="white"/>
<path d="M133.052 21.2924C128.825 21.2924 125.609 18.0494 125.609 13.8228C125.609 9.62279 128.878 6.35316 133.052 6.35316C137.252 6.35316 140.521 9.62279 140.521 13.8228C140.521 17.9696 137.278 21.2924 133.052 21.2924ZM133.052 19.219C136.056 19.219 138.315 16.8797 138.315 13.8228C138.315 10.7658 136.029 8.4 133.052 8.4C130.075 8.4 127.815 10.7658 127.815 13.8228C127.815 16.9063 130.075 19.219 133.052 19.219Z" fill="white"/>
<path d="M116.25 21V6.64557H118.35V9.35696C118.962 7.44303 120.397 6.43291 122.444 6.43291C123.428 6.43291 124.278 6.61898 124.837 6.96455L123.933 9.03797C123.534 8.77215 122.949 8.58607 122.178 8.58607C119.786 8.58607 118.404 9.96835 118.404 13.1316V21H116.25Z" fill="white"/>
<path d="M98.2422 21V1.59494H106.536C110.151 1.59494 112.544 3.61519 112.544 6.7519C112.544 8.61266 111.64 10.1279 109.965 10.9519C111.852 11.7228 112.942 13.3443 112.942 15.5241C112.942 18.9266 110.47 21 106.802 21H98.2422ZM106.669 12.0418H100.449V18.9532H106.775C109.168 18.9532 110.709 17.5177 110.709 15.4975C110.709 13.4506 109.327 12.0418 106.669 12.0418ZM106.509 3.61519H100.449V9.99494H106.695C109.061 9.99494 110.337 8.61266 110.337 6.7519C110.337 4.89114 108.875 3.61519 106.509 3.61519Z" fill="white"/>
<path d="M73.7704 21L79.14 13.6367L74.0628 6.64557H78.4223L81.4261 10.8987L84.4565 6.64557H88.7628L83.659 13.6633L89.1349 21H84.6957L81.3995 16.5076L78.183 21H73.7704Z" fill="white"/>
<path d="M66.0453 21.2924C61.739 21.2924 58.4694 17.943 58.4694 13.8228C58.4694 9.67595 61.739 6.35316 66.0453 6.35316C70.3251 6.35316 73.6478 9.67595 73.6478 13.8228C73.6478 17.943 70.3782 21.2924 66.0453 21.2924ZM66.0719 17.8101C68.2516 17.8101 70.0061 16.0291 70.0061 13.7962C70.0061 11.5633 68.2516 9.78228 66.0719 9.78228C63.8656 9.78228 62.1377 11.5633 62.1377 13.7962C62.1377 16.0291 63.8656 17.8101 66.0719 17.8101Z" fill="white"/>
<path d="M48.1567 9.94177V6.64557H50.5225V6.14051C50.5225 1.48861 51.9845 0.0531616 56.663 0.0531616H57.62V3.40253H57.0086C54.4567 3.40253 54.1643 3.77468 54.1643 5.95443V6.64557H57.62V9.94177H54.1643V21H50.5225V9.94177H48.1567Z" fill="white"/>
<path d="M39.7751 21.2924C35.1498 21.2924 32.1726 18.0228 32.1726 13.8494C32.1726 9.67595 35.4156 6.35316 39.6954 6.35316C44.0017 6.35316 47.1119 9.46329 47.1119 13.7165V15.0987H35.7081C36.1865 16.9595 37.7017 18.1291 39.8283 18.1291C41.5296 18.1291 42.6726 17.3848 43.3903 16.2152L46.3941 17.9696C44.9587 19.9899 42.9384 21.2924 39.7751 21.2924ZM39.6954 9.46329C37.8346 9.46329 36.3992 10.5532 35.8144 12.2278H43.4701C42.9916 10.4468 41.6093 9.46329 39.6954 9.46329Z" fill="white"/>
<path d="M21.9293 21V6.64557H25.5445V8.8519C26.2357 7.15063 27.6711 6.37975 29.5053 6.37975C30.4622 6.37975 31.3129 6.61899 31.9243 6.93797L30.5951 10.5532C30.1964 10.2608 29.5053 10.0481 28.6812 10.0481C26.7939 10.0481 25.5711 11.0051 25.5711 13.424V21H21.9293Z" fill="white"/>
<path d="M15.2578 21V6.64558H19.0059V21H15.2578ZM14.7793 2.60507C14.7793 1.22279 15.7628 0.212662 17.1185 0.212662C18.5274 0.212662 19.4844 1.22279 19.4844 2.60507C19.4844 3.96076 18.5274 4.94431 17.1185 4.94431C15.7363 4.94431 14.7793 3.96076 14.7793 2.60507Z" fill="white"/>
<path d="M0 21V1.59494H12.4937V5.15697H3.77468V9.64937H12.4937V13.1582H3.77468V21H0Z" fill="white"/>
<path d="M75.1011 36V26.0866H81.7689V27.8927H77.0159V30.1199H81.7689V31.926H77.0159V34.1803H81.7689V36H75.1011Z" fill="url(#paint0_linear_611_4631)"/>
<path d="M70.0667 36.1358C67.9347 36.1358 66.631 35.2938 65.694 34.0988L67.3643 32.768C68.0161 33.8 68.8988 34.3297 70.0803 34.3297C71.1531 34.3297 71.7099 33.8136 71.7099 33.0939C71.7099 32.1704 70.7593 31.9803 69.3877 31.668C67.9075 31.3556 66.2507 30.8803 66.2507 28.8705C66.2507 27.2409 67.7038 25.9372 69.768 25.9372C71.5198 25.9372 72.6198 26.5483 73.6247 27.6619L72.063 28.8841C71.5469 28.1236 70.8815 27.6483 69.7408 27.6483C68.668 27.6483 68.2063 28.1779 68.2063 28.8298C68.2063 29.631 69.1976 29.7804 70.4334 30.0655C71.9543 30.3915 73.7062 30.8803 73.7062 33.026C73.7062 34.7235 72.2803 36.1358 70.0667 36.1358Z" fill="url(#paint1_linear_611_4631)"/>
<path d="M62.703 36V26.0866H64.6449V36H62.703Z" fill="url(#paint2_linear_611_4631)"/>
<path d="M53.511 36V26.0866H57.5307C59.8121 26.0866 61.1701 27.5532 61.1701 29.4409C61.1701 30.6902 60.5318 31.8174 59.4319 32.3741L61.3874 36H59.2417L57.6529 32.8766H55.4258V36H53.511ZM57.3813 27.852H55.4258V31.1248H57.3813C58.6442 31.1248 59.2282 30.3371 59.2282 29.4544C59.2282 28.4767 58.6035 27.852 57.3813 27.852Z" fill="url(#paint3_linear_611_4631)"/>
<path d="M44.3604 36V26.0866H48.2715C50.4986 26.0866 51.9924 27.689 51.9924 29.6853C51.9924 31.6544 50.4986 33.2976 48.2579 33.2976H46.2888V36H44.3604ZM48.1492 27.8384H46.2888V31.5186H48.1492C49.29 31.5186 50.0504 30.7445 50.0504 29.6853C50.0504 28.6125 49.29 27.8384 48.1492 27.8384Z" fill="url(#paint4_linear_611_4631)"/>
<path d="M35.2364 36V26.0866H39.2561C41.5375 26.0866 42.8955 27.5532 42.8955 29.4409C42.8955 30.6902 42.2572 31.8174 41.1573 32.3741L43.1128 36H40.9671L39.3783 32.8766H37.1512V36H35.2364ZM39.1067 27.852H37.1512V31.1248H39.1067C40.3696 31.1248 40.9536 30.3371 40.9536 29.4544C40.9536 28.4767 40.3289 27.852 39.1067 27.852Z" fill="url(#paint5_linear_611_4631)"/>
<path d="M26.908 36V26.0866H33.5758V27.8927H28.8228V30.1199H33.5758V31.926H28.8228V34.1803H33.5758V36H26.908Z" fill="url(#paint6_linear_611_4631)"/>
<path d="M20.8131 36V27.852H18.0564V26.0866H25.4303V27.852H22.7008V36H20.8131Z" fill="url(#paint7_linear_611_4631)"/>
<path d="M8.32837 36V26.0866H10.3789L14.7246 32.8359V26.0866H16.5714V36H14.6702L10.1888 29.0335V36H8.32837Z" fill="url(#paint8_linear_611_4631)"/>
<path d="M0 36V26.0866H6.66778V27.8927H1.91478V30.1199H6.66778V31.926H1.91478V34.1803H6.66778V36H0Z" fill="url(#paint9_linear_611_4631)"/>
<defs>
<linearGradient id="paint0_linear_611_4631" x1="-0.869153" y1="31" x2="83.1308" y2="31" gradientUnits="userSpaceOnUse">
<stop stop-color="#FF9137"/>
<stop offset="1" stop-color="#FFED4A"/>
</linearGradient>
<linearGradient id="paint1_linear_611_4631" x1="-0.869149" y1="31" x2="83.1309" y2="31" gradientUnits="userSpaceOnUse">
<stop stop-color="#FF9137"/>
<stop offset="1" stop-color="#FFED4A"/>
</linearGradient>
<linearGradient id="paint2_linear_611_4631" x1="-0.869113" y1="31" x2="83.1309" y2="31" gradientUnits="userSpaceOnUse">
<stop stop-color="#FF9137"/>
<stop offset="1" stop-color="#FFED4A"/>
</linearGradient>
<linearGradient id="paint3_linear_611_4631" x1="-0.869173" y1="31" x2="83.1308" y2="31" gradientUnits="userSpaceOnUse">
<stop stop-color="#FF9137"/>
<stop offset="1" stop-color="#FFED4A"/>
</linearGradient>
<linearGradient id="paint4_linear_611_4631" x1="-0.869158" y1="31" x2="83.1308" y2="31" gradientUnits="userSpaceOnUse">
<stop stop-color="#FF9137"/>
<stop offset="1" stop-color="#FFED4A"/>
</linearGradient>
<linearGradient id="paint5_linear_611_4631" x1="-0.869122" y1="31" x2="83.1309" y2="31" gradientUnits="userSpaceOnUse">
<stop stop-color="#FF9137"/>
<stop offset="1" stop-color="#FFED4A"/>
</linearGradient>
<linearGradient id="paint6_linear_611_4631" x1="-0.869127" y1="31" x2="83.1309" y2="31" gradientUnits="userSpaceOnUse">
<stop stop-color="#FF9137"/>
<stop offset="1" stop-color="#FFED4A"/>
</linearGradient>
<linearGradient id="paint7_linear_611_4631" x1="-0.869136" y1="31" x2="83.1309" y2="31" gradientUnits="userSpaceOnUse">
<stop stop-color="#FF9137"/>
<stop offset="1" stop-color="#FFED4A"/>
</linearGradient>
<linearGradient id="paint8_linear_611_4631" x1="-0.86911" y1="31" x2="83.1309" y2="31" gradientUnits="userSpaceOnUse">
<stop stop-color="#FF9137"/>
<stop offset="1" stop-color="#FFED4A"/>
</linearGradient>
<linearGradient id="paint9_linear_611_4631" x1="-0.86912" y1="31" x2="83.1309" y2="31" gradientUnits="userSpaceOnUse">
<stop stop-color="#FF9137"/>
<stop offset="1" stop-color="#FFED4A"/>
</linearGradient>
</defs>
</svg>
