<svg width="512" height="512" viewBox="0 0 512 512" fill="none" xmlns="http://www.w3.org/2000/svg">
<g clip-path="url(#clip0_500_8135)">
<ellipse cx="258.18" cy="251.409" rx="118.329" ry="118.329" fill="url(#paint0_radial_500_8135)"/>
<path d="M361.922 194.598C362.446 194.966 362.922 195.332 363.415 195.698C357.384 184.994 349.873 175.193 341.105 166.586C266.4 91.8901 321.516 4.62415 330.811 0.192152C330.838 0.156152 330.894 0.0751523 330.911 0.0561523C270.541 35.4121 250.061 100.817 248.179 133.54C250.979 133.346 253.771 133.111 256.621 133.111C301.672 133.111 340.91 157.881 361.922 194.598Z" fill="url(#paint1_radial_500_8135)"/>
<path d="M341.105 166.586C349.873 175.193 357.384 184.993 363.415 195.698C364.738 196.692 365.974 197.683 367.023 198.65C421.505 248.85 392.959 319.85 390.83 324.91C435.091 288.45 463.405 234.527 454.881 178.866C427.706 111.134 381.627 83.8217 344 24.3537C342.1 21.3467 340.195 18.3317 338.339 15.1537C337.394 13.5307 336.511 11.8721 335.693 10.1817C334.13 7.16354 332.924 3.97331 332.1 0.675696C332.106 0.51958 332.053 0.366952 331.952 0.247793C331.851 0.128633 331.709 0.0515544 331.554 0.0316961C331.407 -0.0105654 331.25 -0.0105654 331.103 0.0316961C331.069 0.0436961 331.019 0.0826961 330.983 0.0966961C330.93 0.117696 330.863 0.165696 330.807 0.196696C321.516 4.6247 266.4 91.8907 341.105 166.586Z" fill="url(#paint2_radial_500_8135)"/>
<path d="M367.023 198.65C365.974 197.683 364.738 196.692 363.415 195.698C362.926 195.33 362.446 194.964 361.922 194.598C349.09 185.584 326.112 176.681 303.975 180.531C390.416 223.745 367.21 372.557 247.43 366.939C236.763 366.504 226.222 364.471 216.159 360.908C213.779 360.013 211.425 359.05 209.1 358.022C207.744 357.404 206.389 356.779 205.05 356.087C205.098 356.12 205.164 356.157 205.213 356.187C221.923 367.587 304.452 395.444 390.697 325.221L390.83 324.908C392.959 319.854 421.505 248.851 367.023 198.65Z" fill="url(#paint3_radial_500_8135)"/>
<path d="M478.711 166.352C468.266 141.228 447.111 114.104 430.499 105.531C444.019 132.036 451.844 158.624 454.834 178.467C454.834 178.506 454.849 178.603 454.881 178.867C427.706 111.134 381.627 83.8217 344 24.3537C342.1 21.3467 340.195 18.3317 338.339 15.1537C337.394 13.5307 336.512 11.8721 335.693 10.1817C334.13 7.16354 332.924 3.97331 332.1 0.675696C332.106 0.51958 332.053 0.366953 331.952 0.247793C331.851 0.128634 331.709 0.0515544 331.554 0.0316961C331.407 -0.0105654 331.251 -0.0105654 331.103 0.0316961C331.069 0.0436962 331.019 0.0826961 330.983 0.0966961C330.93 0.117696 330.863 0.165696 330.807 0.196696C330.834 0.160696 330.89 0.0796961 330.907 0.0606962C270.537 35.4167 250.057 100.822 248.175 133.545C250.975 133.351 253.767 133.116 256.617 133.116C301.67 133.116 340.908 157.886 361.917 194.6C349.085 185.586 326.107 176.683 303.97 180.533C390.411 223.747 367.205 372.559 247.425 366.941C236.759 366.505 226.218 364.472 216.154 360.91C213.774 360.015 211.421 359.052 209.095 358.024C207.739 357.406 206.384 356.781 205.045 356.089C205.093 356.122 205.159 356.159 205.208 356.189C204.034 355.624 202.867 355.043 201.708 354.446C202.832 354.983 203.888 355.57 205.042 356.085C175.692 340.917 151.458 312.252 148.431 277.442C148.431 277.442 159.524 236.107 227.863 236.107C235.251 236.107 256.372 215.492 256.763 209.514C256.674 207.562 214.846 190.924 198.54 174.858C189.827 166.274 185.69 162.135 182.026 159.03C180.039 157.351 177.96 155.782 175.801 154.33C170.324 135.166 170.091 114.882 175.127 95.5977C150.439 106.839 131.237 124.608 117.277 140.298H117.166C107.639 128.231 108.311 88.4247 108.854 80.1137C108.74 79.5987 101.747 83.7437 100.831 84.3687C92.4244 90.3694 84.5651 97.1024 77.3453 104.489C69.1318 112.822 61.6275 121.825 54.9103 131.405C54.9103 131.417 54.9033 131.431 54.8993 131.443C54.8993 131.43 54.9063 131.417 54.9103 131.405C39.4567 153.304 28.4965 178.049 22.6633 204.21C22.5483 204.731 22.4513 205.271 22.3393 205.796C21.8873 207.912 19.8533 218.649 19.5693 220.952C19.5473 221.129 19.5903 220.776 19.5693 220.952C17.7145 232.047 16.531 243.244 16.0253 254.482C16.0253 254.892 16.0003 255.298 16.0003 255.709C16.0003 388.417 123.6 495.999 256.324 495.999C375.189 495.999 473.884 409.711 493.206 296.369C493.613 293.293 493.939 290.201 494.298 287.098C499.075 245.888 493.768 202.573 478.711 166.352ZM454.87 178.693C454.882 178.778 454.897 178.867 454.91 178.952L454.902 178.926L454.87 178.693Z" fill="url(#paint4_linear_500_8135)"/>
<path d="M148.439 277.442C148.439 277.442 159.532 236.107 227.871 236.107C235.259 236.107 256.38 215.492 256.771 209.514C257.162 203.536 213.071 227.866 166.538 205.973C116.299 182.335 78.18 209.514 78.18 209.514C78.18 209.514 92.657 245.323 135.114 245.323C130.661 284.609 151.433 330.423 201.714 354.447C202.838 354.984 203.894 355.571 205.048 356.086C175.7 340.917 151.466 312.252 148.439 277.442Z" fill="url(#paint5_linear_500_8135)"/>
<path fill-rule="evenodd" clip-rule="evenodd" d="M100.838 84.3659C101.754 83.7409 108.746 79.5953 108.86 80.1103C108.317 88.4223 107.647 128.228 117.174 140.295H117.285C118.452 140.265 153.302 139.638 170.827 151.028C172.499 152.111 174.16 153.211 175.809 154.328C177.968 155.78 180.046 157.349 182.034 159.028C185.698 162.133 189.834 166.273 198.547 174.857C214.852 190.922 256.674 207.559 256.769 209.513C256.579 209.592 212.968 227.818 166.538 205.973C116.299 182.335 78.178 209.513 78.178 209.513C78.178 209.513 92.6565 245.321 135.114 245.321C130.66 284.607 151.432 330.417 201.714 354.446C202.872 355.043 204.039 355.623 205.214 356.188C221.924 367.59 304.453 395.447 390.698 325.224L390.829 324.91C435.09 288.45 463.404 234.527 454.88 178.866C454.848 178.602 454.833 178.505 454.833 178.466C451.843 158.623 444.018 132.035 430.498 105.53C447.11 114.103 468.266 141.226 478.711 166.35C493.768 202.571 499.075 245.887 494.298 287.097C493.939 290.2 493.614 293.292 493.207 296.368C473.885 409.71 375.189 495.999 256.325 495.999C123.601 495.999 16 388.416 15.998 255.708C15.998 255.297 16.0224 254.891 16.0224 254.481C16.714 241.702 17.2976 236.04 18.218 230.499C19.8407 216.569 22.5974 204.503 22.6624 204.208C28.4957 178.048 39.4557 153.303 54.9091 131.404C61.6282 121.823 69.1356 112.819 77.3513 104.486C84.571 97.0997 92.4313 90.3665 100.838 84.3659ZM454.902 178.926L454.909 178.95C454.896 178.866 454.881 178.777 454.869 178.693L454.902 178.926Z" fill="url(#paint6_radial_500_8135)"/>
<path fill-rule="evenodd" clip-rule="evenodd" d="M100.838 84.3659C101.754 83.7409 108.746 79.5953 108.86 80.1103C108.317 88.4223 107.647 128.228 117.174 140.295H117.285C118.452 140.265 153.302 139.638 170.827 151.028C172.499 152.111 174.16 153.211 175.809 154.328C177.968 155.78 180.046 157.349 182.034 159.028C185.698 162.133 189.834 166.273 198.547 174.857C214.852 190.922 256.674 207.559 256.769 209.513C256.579 209.592 212.968 227.818 166.538 205.973C116.299 182.335 78.178 209.513 78.178 209.513C78.178 209.513 92.6565 245.321 135.114 245.321C130.66 284.607 151.432 330.417 201.714 354.446C202.872 355.043 204.039 355.623 205.214 356.188C221.924 367.59 304.453 395.447 390.698 325.224L390.829 324.91C435.09 288.45 463.404 234.527 454.88 178.866C454.848 178.602 454.833 178.505 454.833 178.466C451.843 158.623 444.018 132.035 430.498 105.53C447.11 114.103 468.266 141.226 478.711 166.35C493.768 202.571 499.075 245.887 494.298 287.097C493.939 290.2 493.614 293.292 493.207 296.368C473.885 409.71 375.189 495.999 256.325 495.999C123.601 495.999 16 388.416 15.998 255.708C15.998 255.297 16.0224 254.891 16.0224 254.481C16.714 241.702 17.2976 236.04 18.218 230.499C19.8407 216.569 22.5974 204.503 22.6624 204.208C28.4957 178.048 39.4557 153.303 54.9091 131.404C61.6282 121.823 69.1356 112.819 77.3513 104.486C84.571 97.0997 92.4313 90.3665 100.838 84.3659ZM454.902 178.926L454.909 178.95C454.896 178.866 454.881 178.777 454.869 178.693L454.902 178.926Z" fill="url(#paint7_linear_500_8135)"/>
<path fill-rule="evenodd" clip-rule="evenodd" d="M100.838 84.3659C101.754 83.7409 108.746 79.5953 108.86 80.1103C108.317 88.4223 107.647 128.228 117.174 140.295H117.285C118.452 140.265 153.302 139.638 170.827 151.028C172.499 152.111 174.16 153.211 175.809 154.328C177.968 155.78 180.046 157.349 182.034 159.028C185.698 162.133 189.834 166.273 198.547 174.857C214.852 190.922 256.674 207.559 256.769 209.513C256.579 209.592 212.968 227.818 166.538 205.973C116.299 182.335 78.178 209.513 78.178 209.513C78.178 209.513 92.6565 245.321 135.114 245.321C130.66 284.607 151.432 330.417 201.714 354.446C202.872 355.043 204.039 355.623 205.214 356.188C221.924 367.59 304.453 395.447 390.698 325.224L390.829 324.91C435.09 288.45 463.404 234.527 454.88 178.866C454.848 178.602 454.833 178.505 454.833 178.466C451.843 158.623 444.018 132.035 430.498 105.53C447.11 114.103 468.266 141.226 478.711 166.35C493.768 202.571 499.075 245.887 494.298 287.097C493.939 290.2 493.614 293.292 493.207 296.368C473.885 409.71 375.189 495.999 256.325 495.999C123.601 495.999 16 388.416 15.998 255.708C15.998 255.297 16.0224 254.891 16.0224 254.481C16.714 241.702 17.2976 236.04 18.218 230.499C19.8407 216.569 22.5974 204.503 22.6624 204.208C28.4957 178.048 39.4557 153.303 54.9091 131.404C61.6282 121.823 69.1356 112.819 77.3513 104.486C84.571 97.0997 92.4313 90.3665 100.838 84.3659ZM454.902 178.926L454.909 178.95C454.896 178.866 454.881 178.777 454.869 178.693L454.902 178.926Z" fill="white" fill-opacity="0.1" style="mix-blend-mode:overlay"/>
<path d="M170.829 151.035C172.503 152.114 174.163 153.214 175.81 154.335C170.332 135.17 170.099 114.887 175.136 95.6025C150.448 106.844 131.246 124.613 117.286 140.303C118.441 140.27 153.3 139.643 170.829 151.035Z" fill="url(#paint8_radial_500_8135)"/>
</g>
<defs>
<radialGradient id="paint0_radial_500_8135" cx="0" cy="0" r="1" gradientUnits="userSpaceOnUse" gradientTransform="translate(207.076 267.379) rotate(-16.1892) scale(183.637 183.637)">
<stop offset="0.1875" stop-color="#1F3059"/>
<stop offset="0.576923" stop-color="#094573"/>
<stop offset="1" stop-color="#1D89E3"/>
</radialGradient>
<radialGradient id="paint1_radial_500_8135" cx="0" cy="0" r="1" gradientUnits="userSpaceOnUse" gradientTransform="translate(303.492 -23.4209) scale(161.33 273.899)">
<stop offset="0.13" stop-color="#FFF44F"/>
<stop offset="0.53" stop-color="#FF980E"/>
</radialGradient>
<radialGradient id="paint2_radial_500_8135" cx="0" cy="0" r="1" gradientTransform="matrix(56.1026 250.877 -1127.08 55.6764 94.2666 149.759)" gradientUnits="userSpaceOnUse">
<stop stop-color="#FFF44F"/>
<stop offset="0.3" stop-color="#FF980E"/>
<stop offset="0.57" stop-color="#FF3647"/>
<stop offset="0.74" stop-color="#E31587"/>
</radialGradient>
<radialGradient id="paint3_radial_500_8135" cx="0" cy="0" r="1" gradientUnits="userSpaceOnUse" gradientTransform="translate(241.932 98.1315) scale(465.218 457.046)">
<stop offset="0.14" stop-color="#FFF44F"/>
<stop offset="0.3125" stop-color="#FF980E"/>
<stop offset="0.66" stop-color="#FF3647"/>
<stop offset="0.9" stop-color="#E31587"/>
</radialGradient>
<linearGradient id="paint4_linear_500_8135" x1="400" y1="69.4398" x2="91.4246" y2="406.594" gradientUnits="userSpaceOnUse">
<stop offset="0.115385" stop-color="#FFF44F" stop-opacity="0.8"/>
<stop offset="0.376902" stop-color="#FFF44F" stop-opacity="0.27"/>
<stop offset="0.650341" stop-color="#FFF44F" stop-opacity="0.52"/>
</linearGradient>
<linearGradient id="paint5_linear_500_8135" x1="277.618" y1="449.421" x2="236.658" y2="180.906" gradientUnits="userSpaceOnUse">
<stop offset="0.0127967" stop-color="#004C7F"/>
<stop offset="0.91" stop-color="#61B4FF"/>
</linearGradient>
<radialGradient id="paint6_radial_500_8135" cx="0" cy="0" r="1" gradientTransform="matrix(42.8475 304.608 -351.528 49.2078 213.151 191.391)" gradientUnits="userSpaceOnUse">
<stop offset="0.152442" stop-color="#228CFF"/>
<stop offset="0.856353" stop-color="#004572"/>
<stop offset="1" stop-color="#106CCD"/>
</radialGradient>
<linearGradient id="paint7_linear_500_8135" x1="234.575" y1="393.083" x2="543.077" y2="65.0866" gradientUnits="userSpaceOnUse">
<stop offset="0.308911" stop-color="#1C7EE1" stop-opacity="0"/>
<stop offset="1" stop-color="#1A7CE0"/>
</linearGradient>
<radialGradient id="paint8_radial_500_8135" cx="0" cy="0" r="1" gradientUnits="userSpaceOnUse" gradientTransform="translate(240.186 36.8706) rotate(102.69) scale(295.757 296.808)">
<stop offset="0.1" stop-color="#2598FF"/>
<stop offset="0.951923" stop-color="#004C7F"/>
</radialGradient>
<clipPath id="clip0_500_8135">
<rect width="512" height="512" fill="white"/>
</clipPath>
</defs>
</svg>
