<svg width="336" height="48" viewBox="0 0 336 48" fill="none" xmlns="http://www.w3.org/2000/svg">
<path d="M257.38 13.9707C262.484 13.9709 265.658 18.0309 265.658 25.1045C265.658 32.178 262.522 36.2371 257.38 36.2373C254.366 36.2373 252.396 34.8694 251.351 32.0566H250.226C250.507 34.588 250.629 35.8731 250.629 37.04V41.1406H246.527V14.374H250.024V18.3916H251.107C252.233 15.4154 254.282 13.9707 257.38 13.9707ZM216.781 13.9707C223.011 13.9709 226.269 17.5902 226.269 24.3027V25.7881H211.315V26.2715C211.315 30.8516 213.003 32.9043 216.781 32.9043C220.559 32.9042 221.726 30.8133 221.726 29.3271V29.126H225.907C224.942 33.7898 221.767 36.2412 216.784 36.2412C210.555 36.241 206.978 32.3034 206.978 25.1084L206.975 25.1045C206.975 17.9091 210.551 13.9707 216.781 13.9707ZM326.513 13.9707C332.743 13.9707 336 17.5901 336 24.3027V25.7881H321.047V26.2715C321.047 30.8516 322.735 32.9043 326.513 32.9043C330.291 32.9043 331.458 30.8134 331.458 29.3271V29.126H335.639C334.673 33.7897 331.5 36.2412 326.517 36.2412C320.287 36.2412 316.71 32.3036 316.71 25.1084L316.706 25.1045C316.706 17.9091 320.283 13.9707 326.513 13.9707ZM62.3633 36.2373H62.3594L62.3613 36.2363L62.3633 36.2373ZM102.491 13.96C105.87 13.96 108.497 14.937 110.371 16.8945C112.275 18.8254 113.226 21.5582 113.226 25.0967C113.226 28.6352 112.275 31.3833 110.371 33.3408C108.493 35.2717 105.866 36.2373 102.491 36.2373C99.1121 36.2373 96.4737 35.2717 94.5693 33.3408C92.6653 31.3833 91.7148 28.6352 91.7148 25.0967C91.7149 21.5582 92.6653 18.8254 94.5693 16.8945C96.4737 14.937 99.1121 13.96 102.491 13.96ZM62.3633 13.96C65.7157 13.96 68.1678 14.8565 69.9619 16.6543C71.7598 18.4522 72.6572 20.9956 72.6572 24.2949V26.2256H57.7793V26.667C57.7793 28.6244 58.1403 30.0728 58.8662 31.0078C59.615 31.92 60.7822 32.3759 62.3633 32.376C63.648 32.376 64.6136 32.1207 65.2598 31.6113C65.9287 31.0754 66.2637 30.513 66.2637 29.9238V29.7646H72.1318C71.5161 31.8551 70.3642 33.4628 68.6729 34.5879C67.0122 35.6861 64.9072 36.2361 62.3613 36.2363C59.0099 36.2359 56.3998 35.2713 54.5225 33.3408C52.6714 31.3833 51.7471 28.6354 51.7471 25.0967C51.7471 21.558 52.6714 18.8254 54.5225 16.8945C56.4001 14.9371 59.0109 13.96 62.3633 13.96ZM304.889 13.9639C310.476 13.9639 313.088 16.0921 313.894 21.0371H309.792V20.8359C309.792 18.9886 308.625 17.1797 304.889 17.1797C301.954 17.1797 300.267 18.2245 300.267 20.1553C300.267 21.6415 301.153 22.3261 303.562 22.8887L307.944 23.8535C312.084 24.8189 313.935 26.507 313.936 29.6426C313.936 33.8236 310.72 36.2343 305.011 36.2344C299.303 36.2344 296.732 34.1062 295.926 29.1631L300.065 29.1221V29.3613C300.065 31.2086 301.233 32.9805 305.011 32.9805C308.025 32.9804 309.792 31.9347 309.792 30.0039C309.792 28.5559 308.868 27.8758 306.417 27.2715L301.996 26.3057C297.895 25.382 296.127 23.6524 296.127 20.5166C296.127 16.3355 299.301 13.9639 304.889 13.9639ZM30.0771 35.8389H24.3262V14.3662H30.0771V35.8389ZM50.5039 18.4678H44.7949C43.5103 18.4678 42.5562 18.8288 41.9404 19.5547C41.3247 20.2769 41.0166 21.4862 41.0166 23.1738V35.8389H35.3076V14.3662H40.5723V18.2285H41.1768C41.6861 16.8337 42.4233 15.8036 43.3887 15.1309C44.3807 14.4353 45.639 14.085 47.167 14.085H50.5039V18.4678ZM124.971 22.0068H125.411L130.276 14.3662H136.065L129.151 24.7812L136.431 35.8389H130.558L125.29 27.5557H124.849L119.58 35.8389H113.792L121.07 24.7812H121.066L114.152 14.3662H120.105L124.971 22.0068ZM181.446 13.9707C185.909 13.9708 188.238 16.6623 188.238 21.8506V35.8389H184.138V22.6562C184.138 18.92 182.731 17.2705 179.595 17.2705C176.459 17.2706 175.015 18.9201 175.015 22.6562V35.8389H170.913V14.374H174.414V18.1523H175.497C176.501 15.2978 178.39 13.9707 181.446 13.9707ZM166.899 11.5986H152.79V19.999H163.844V23.3369H152.79V32.3418H167.06V35.8379H148.571V8.10254H166.899V11.5986ZM243.388 17.4717H238.442C235.269 17.4718 233.862 19.122 233.862 22.8164V35.8379H229.761V14.374H233.262V18.2734H234.346C235.349 15.4192 237.079 14.1348 240.093 14.1348H243.388V17.4717ZM282.539 17.4717H277.594C274.42 17.4717 273.014 19.1218 273.014 22.8164V35.8379H268.912V14.374H272.413V18.2734H273.496C274.5 15.4191 276.229 14.1348 279.243 14.1348H282.539V17.4717ZM292.387 35.8379H288.286V17.4678H285.233V14.374H292.387V35.8379ZM90.4307 9.78223H83.957V14.3662H90.4307V18.1445H83.957V35.835H78.2061V18.1445H74.5459V14.3662H78.2061V9.45898C78.2061 8.36067 78.5027 7.51683 79.0918 6.92773C79.7076 6.31197 80.5934 6.00391 81.7451 6.00391H90.4307V9.78223ZM198.935 14.374H204.603V17.4678H198.935V32.7402H204.603V35.835H197.528C195.761 35.8349 194.837 34.869 194.837 33.1016H194.834V17.4678H190.694V14.374H194.834V9.5918H198.935V14.374ZM20.1035 10.543H5.91016V19.3877H16.8086V23.9297H5.91016V35.8311H0V6H20.1035V10.543ZM255.973 17.2666C252.278 17.2668 250.629 19.3156 250.629 23.8994V26.3096C250.629 30.8514 252.316 32.9002 255.973 32.9004C259.629 32.9004 261.317 30.8516 261.317 26.3096V23.8994C261.317 19.3192 259.667 17.2666 255.973 17.2666ZM102.491 17.8252C100.883 17.8252 99.6895 18.2927 98.9141 19.2314C98.1349 20.1436 97.7471 21.5769 97.7471 23.5342V26.6709C97.7471 28.6282 98.1349 30.0767 98.9141 31.0117C99.6933 31.9239 100.883 32.3799 102.491 32.3799C104.099 32.3799 105.278 31.9239 106.03 31.0117C106.809 30.0729 107.197 28.6244 107.197 26.6709V23.5342C107.197 21.5769 106.809 20.1436 106.03 19.2314C105.281 18.2926 104.099 17.8252 102.491 17.8252ZM216.781 17.1865C213.242 17.1865 211.517 18.9962 211.315 23.0557H222.209C222.008 18.9963 220.32 17.1867 216.781 17.1865ZM326.513 17.1865C322.974 17.1865 321.248 18.9962 321.047 23.0557H331.94C331.739 18.9962 330.051 17.1865 326.513 17.1865ZM62.3672 17.7041C60.8963 17.7041 59.779 18.1072 59.0303 18.9092C58.3082 19.6884 57.8896 20.9199 57.7832 22.6074H66.9473C66.8409 20.92 66.4117 19.6846 65.6631 18.9092C64.9409 18.1034 63.8382 17.7041 62.3672 17.7041ZM292.592 11.9219H287.929V8.10254H292.592V11.9219ZM30.3213 10.543H24.0869V6H30.3213V10.543Z" fill="white"/>
</svg>
