<svg width="512" height="512" viewBox="0 0 225 225" fill="none" xmlns="http://www.w3.org/2000/svg">
<circle cx="113.458" cy="110.482" r="52" fill="url(#paint0_radial_200_642)"/>
<path d="M159.048 85.5175C159.278 85.6792 159.487 85.84 159.704 86.0009C157.053 81.2968 153.753 76.99 149.9 73.2075C117.07 40.3821 141.291 2.03281 145.376 0.0851563C145.388 0.0693359 145.412 0.0337402 145.42 0.0253906C118.89 15.5627 109.89 44.3051 109.063 58.6854C110.294 58.6001 111.521 58.4968 112.773 58.4968C132.571 58.4968 149.814 69.3821 159.048 85.5175Z" fill="url(#paint1_radial_200_642)"/>
<path d="M149.9 73.2071C153.753 76.9895 157.053 81.2964 159.704 86.0005C160.285 86.4373 160.828 86.8728 161.289 87.2977C185.232 109.358 172.687 140.559 171.751 142.783C191.202 126.761 203.645 103.064 199.899 78.6036C187.957 48.8385 167.707 36.8362 151.172 10.7028C150.337 9.38136 149.5 8.05641 148.684 6.65983C148.269 5.94659 147.881 5.21773 147.521 4.47487C146.834 3.14853 146.304 1.74657 145.942 0.297425C145.945 0.228819 145.922 0.161747 145.877 0.109382C145.833 0.0570167 145.771 0.023144 145.702 0.0144173C145.638 -0.00415471 145.569 -0.00415471 145.504 0.0144173C145.489 0.0196907 145.467 0.0368294 145.452 0.0429817C145.428 0.0522102 145.399 0.073304 145.374 0.086927C141.291 2.03283 117.07 40.3821 149.9 73.2071Z" fill="url(#paint2_radial_200_642)"/>
<path d="M161.289 87.2977C160.828 86.8728 160.285 86.4373 159.704 86.0004C159.489 85.8387 159.278 85.6779 159.048 85.517C153.409 81.5558 143.311 77.6434 133.583 79.3353C171.57 98.3258 161.372 163.722 108.734 161.253C104.046 161.062 99.4142 160.168 94.9917 158.603C93.9459 158.209 92.9115 157.786 91.8896 157.334C91.2938 157.063 90.6983 156.788 90.1099 156.484C90.131 156.498 90.16 156.515 90.1815 156.528C97.5248 161.538 133.792 173.779 171.693 142.92L171.751 142.782C172.687 140.561 185.232 109.359 161.289 87.2977Z" fill="url(#paint3_radial_200_642)"/>
<path d="M210.371 73.1043C205.781 62.0634 196.484 50.1437 189.184 46.3763C195.126 58.024 198.564 69.7082 199.878 78.4282C199.878 78.4454 199.885 78.488 199.899 78.604C187.957 48.8385 167.707 36.8362 151.172 10.7028C150.337 9.38136 149.5 8.05641 148.684 6.65983C148.269 5.94659 147.881 5.21773 147.521 4.47487C146.834 3.14853 146.305 1.74657 145.942 0.297425C145.945 0.228819 145.922 0.161747 145.877 0.109382C145.833 0.0570167 145.771 0.023144 145.702 0.0144173C145.638 -0.00415471 145.569 -0.00415471 145.504 0.0144173C145.489 0.0196907 145.467 0.0368294 145.452 0.0429817C145.428 0.0522102 145.399 0.073304 145.374 0.086927C145.386 0.0711067 145.411 0.035511 145.418 0.0271614C118.888 15.5645 109.888 44.3069 109.061 58.6871C110.292 58.6019 111.519 58.4986 112.771 58.4986C132.57 58.4986 149.813 69.3839 159.046 85.5179C153.407 81.5567 143.309 77.6443 133.581 79.3362C171.567 98.3267 161.369 163.723 108.732 161.254C104.044 161.062 99.412 160.169 94.9896 158.603C93.9438 158.21 92.9093 157.787 91.8875 157.335C91.2916 157.064 90.6962 156.789 90.1077 156.485C90.1288 156.499 90.1578 156.516 90.1794 156.529C89.6632 156.28 89.1505 156.025 88.6413 155.763C89.1352 155.999 89.5993 156.257 90.1064 156.483C77.2085 149.817 66.5588 137.22 65.2285 121.923C65.2285 121.923 70.1034 103.758 100.135 103.758C103.382 103.758 112.664 94.699 112.835 92.0719C112.796 91.2141 94.4148 83.9025 87.2491 76.8423C83.4201 73.07 81.6021 71.2511 79.992 69.8866C79.1184 69.1488 78.2052 68.4593 77.2564 67.8212C74.8492 59.3994 74.7469 50.4859 76.9602 42.0112C66.1109 46.9511 57.6726 54.7597 51.5378 61.6548H51.489C47.3024 56.3519 47.5977 38.859 47.8363 35.2067C47.7862 34.9804 44.7131 36.8019 44.3106 37.0766C40.6161 39.7136 37.1623 42.6724 33.9896 45.9184C30.3801 49.5803 27.0823 53.5368 24.1304 57.7467C24.1304 57.752 24.1274 57.7581 24.1256 57.7634C24.1256 57.7577 24.1287 57.752 24.1304 57.7467C17.3393 67.3705 12.5228 78.2448 9.95939 89.7411C9.90885 89.97 9.86622 90.2073 9.817 90.4381C9.61837 91.3679 8.72452 96.0864 8.59972 97.0984C8.59005 97.1762 8.60895 97.0211 8.59972 97.0984C7.7846 101.974 7.26451 106.895 7.0423 111.833C7.0423 112.013 7.03131 112.192 7.03131 112.372C7.03131 170.691 54.3165 217.969 112.642 217.969C164.878 217.969 208.25 180.049 216.741 130.241C216.92 128.889 217.063 127.53 217.221 126.166C219.32 108.057 216.988 89.0217 210.371 73.1043ZM199.894 78.5276C199.899 78.5649 199.906 78.604 199.912 78.6414L199.908 78.63L199.894 78.5276Z" fill="url(#paint4_linear_200_642)"/>
<path d="M65.232 121.923C65.232 121.923 70.1069 103.758 100.139 103.758C103.385 103.758 112.667 94.6989 112.839 92.0718C113.011 89.4448 93.6348 100.137 73.1857 90.5157C51.108 80.1279 34.3565 92.0718 34.3565 92.0718C34.3565 92.0718 40.7185 107.808 59.3763 107.808C57.4194 125.073 66.5478 145.206 88.6439 155.763C89.1379 155.999 89.6019 156.257 90.109 156.483C77.212 149.817 66.5623 137.22 65.232 121.923Z" fill="url(#paint5_linear_200_642)"/>
<path fill-rule="evenodd" clip-rule="evenodd" d="M44.3136 37.0756C44.7161 36.8009 47.7889 34.9791 47.839 35.2054C47.6004 38.8582 47.3057 56.3509 51.4923 61.6537H51.5411C52.054 61.6404 67.369 61.3653 75.0704 66.3705C75.8052 66.8462 76.5354 67.3296 77.2599 67.8207C78.2087 68.4587 79.1218 69.1483 79.9952 69.8861C81.6054 71.2506 83.4231 73.0699 87.2521 76.8422C94.4173 83.9019 112.796 91.213 112.838 92.0717C112.754 92.1067 93.5897 100.116 73.1857 90.516C51.108 80.1282 34.3556 92.0717 34.3556 92.0717C34.3556 92.0717 40.7182 107.808 59.3761 107.808C57.4188 125.072 66.5471 145.203 88.6437 155.763C89.1528 156.025 89.6657 156.28 90.1818 156.529C97.525 161.539 133.793 173.781 171.693 142.921L171.751 142.784C191.202 126.761 203.644 103.064 199.899 78.6039C199.885 78.4879 199.878 78.4452 199.878 78.4281C198.564 69.708 195.125 58.024 189.184 46.3763C196.484 50.1437 205.781 62.0631 210.371 73.1039C216.988 89.0213 219.32 108.057 217.221 126.166C217.063 127.53 216.92 128.889 216.741 130.241C208.25 180.049 164.878 217.969 112.643 217.969C54.3167 217.969 7.03127 170.691 7.0304 112.372C7.0304 112.192 7.04113 112.013 7.04114 111.833C7.34506 106.218 7.6015 103.729 8.00598 101.294C8.71909 95.1729 9.93052 89.8701 9.95911 89.7406C12.5225 78.2444 17.3389 67.3701 24.13 57.7465C27.0827 53.5361 30.3819 49.5794 33.9923 45.9174C37.165 42.6715 40.6193 39.7126 44.3136 37.0756ZM7.72766 104.049C7.33622 106.87 7.16383 109.734 7.77454 113.56C7.37711 110.779 7.44593 107.389 7.72766 104.049ZM199.908 78.6303L199.911 78.641C199.906 78.6038 199.899 78.5649 199.894 78.5277L199.908 78.6303Z" fill="url(#paint6_radial_200_642)"/>
<path fill-rule="evenodd" clip-rule="evenodd" d="M44.3136 37.0756C44.7161 36.8009 47.7889 34.9791 47.839 35.2054C47.6004 38.8582 47.3057 56.3509 51.4923 61.6537H51.5411C52.054 61.6404 67.369 61.3653 75.0704 66.3705C75.8052 66.8462 76.5354 67.3296 77.2599 67.8207C78.2087 68.4587 79.1218 69.1483 79.9952 69.8861C81.6054 71.2506 83.4231 73.0699 87.2521 76.8422C94.4173 83.9019 112.796 91.213 112.838 92.0717C112.754 92.1067 93.5897 100.116 73.1857 90.516C51.108 80.1282 34.3556 92.0717 34.3556 92.0717C34.3556 92.0717 40.7182 107.808 59.3761 107.808C57.4188 125.072 66.5471 145.203 88.6437 155.763C89.1528 156.025 89.6657 156.28 90.1818 156.529C97.525 161.539 133.793 173.781 171.693 142.921L171.751 142.784C191.202 126.761 203.644 103.064 199.899 78.6039C199.885 78.4879 199.878 78.4452 199.878 78.4281C198.564 69.708 195.125 58.024 189.184 46.3763C196.484 50.1437 205.781 62.0631 210.371 73.1039C216.988 89.0213 219.32 108.057 217.221 126.166C217.063 127.53 216.92 128.889 216.741 130.241C208.25 180.049 164.878 217.969 112.643 217.969C54.3167 217.969 7.03127 170.691 7.0304 112.372C7.0304 112.192 7.04113 112.013 7.04114 111.833C7.34506 106.218 7.6015 103.729 8.00598 101.294C8.71909 95.1729 9.93052 89.8701 9.95911 89.7406C12.5225 78.2444 17.3389 67.3701 24.13 57.7465C27.0827 53.5361 30.3819 49.5794 33.9923 45.9174C37.165 42.6715 40.6193 39.7126 44.3136 37.0756ZM7.72766 104.049C7.33622 106.87 7.16383 109.734 7.77454 113.56C7.37711 110.779 7.44593 107.389 7.72766 104.049ZM199.908 78.6303L199.911 78.641C199.906 78.6038 199.899 78.5649 199.894 78.5277L199.908 78.6303Z" fill="url(#paint7_linear_200_642)"/>
<path fill-rule="evenodd" clip-rule="evenodd" d="M44.3136 37.0756C44.7161 36.8009 47.7889 34.9791 47.839 35.2054C47.6004 38.8582 47.3057 56.3509 51.4923 61.6537H51.5411C52.054 61.6404 67.369 61.3653 75.0704 66.3705C75.8052 66.8462 76.5354 67.3296 77.2599 67.8207C78.2087 68.4587 79.1218 69.1483 79.9952 69.8861C81.6054 71.2506 83.4231 73.0699 87.2521 76.8422C94.4173 83.9019 112.796 91.213 112.838 92.0717C112.754 92.1067 93.5897 100.116 73.1857 90.516C51.108 80.1282 34.3556 92.0717 34.3556 92.0717C34.3556 92.0717 40.7182 107.808 59.3761 107.808C57.4188 125.072 66.5471 145.203 88.6437 155.763C89.1528 156.025 89.6657 156.28 90.1818 156.529C97.525 161.539 133.793 173.781 171.693 142.921L171.751 142.784C191.202 126.761 203.644 103.064 199.899 78.6039C199.885 78.4879 199.878 78.4452 199.878 78.4281C198.564 69.708 195.125 58.024 189.184 46.3763C196.484 50.1437 205.781 62.0631 210.371 73.1039C216.988 89.0213 219.32 108.057 217.221 126.166C217.063 127.53 216.92 128.889 216.741 130.241C208.25 180.049 164.878 217.969 112.643 217.969C54.3167 217.969 7.03127 170.691 7.0304 112.372C7.0304 112.192 7.04113 112.013 7.04114 111.833C7.34506 106.218 7.6015 103.729 8.00598 101.294C8.71909 95.1729 9.93052 89.8701 9.95911 89.7406C12.5225 78.2444 17.3389 67.3701 24.13 57.7465C27.0827 53.5361 30.3819 49.5794 33.9923 45.9174C37.165 42.6715 40.6193 39.7126 44.3136 37.0756ZM7.72766 104.049C7.33622 106.87 7.16383 109.734 7.77454 113.56C7.37711 110.779 7.44593 107.389 7.72766 104.049ZM199.908 78.6303L199.911 78.641C199.906 78.6038 199.899 78.5649 199.894 78.5277L199.908 78.6303Z" fill="white" fill-opacity="0.1" style="mix-blend-mode:overlay"/>
<path d="M75.0714 66.373C75.8069 66.8474 76.5366 67.3308 77.2603 67.8232C74.8531 59.4014 74.7508 50.4879 76.9641 42.0132C66.1149 46.9531 57.6765 54.7617 51.5417 61.6567C52.0493 61.6422 67.3682 61.3667 75.0714 66.373Z" fill="url(#paint8_radial_200_642)"/>
<defs>
<radialGradient id="paint0_radial_200_642" cx="0" cy="0" r="1" gradientUnits="userSpaceOnUse" gradientTransform="translate(91 117.5) rotate(-16.1892) scale(80.7001)">
<stop offset="0.1875" stop-color="#1F3059"/>
<stop offset="0.576923" stop-color="#094573"/>
<stop offset="1" stop-color="#1D89E3"/>
</radialGradient>
<radialGradient id="paint1_radial_200_642" cx="0" cy="0" r="1" gradientUnits="userSpaceOnUse" gradientTransform="translate(133.371 -10.2917) scale(70.8972 120.366)">
<stop offset="0.13" stop-color="#FFF44F"/>
<stop offset="0.53" stop-color="#FF980E"/>
</radialGradient>
<radialGradient id="paint2_radial_200_642" cx="0" cy="0" r="1" gradientTransform="matrix(24.6545 110.249 -495.298 24.4672 41.4257 65.8125)" gradientUnits="userSpaceOnUse">
<stop stop-color="#FFF44F"/>
<stop offset="0.3" stop-color="#FF980E"/>
<stop offset="0.57" stop-color="#FF3647"/>
<stop offset="0.74" stop-color="#E31587"/>
</radialGradient>
<radialGradient id="paint3_radial_200_642" cx="0" cy="0" r="1" gradientUnits="userSpaceOnUse" gradientTransform="translate(106.318 43.1246) scale(204.442 200.85)">
<stop offset="0.14" stop-color="#FFF44F"/>
<stop offset="0.3125" stop-color="#FF980E"/>
<stop offset="0.66" stop-color="#FF3647"/>
<stop offset="0.9" stop-color="#E31587"/>
</radialGradient>
<linearGradient id="paint4_linear_200_642" x1="175.781" y1="30.516" x2="40.1768" y2="178.679" gradientUnits="userSpaceOnUse">
<stop offset="0.115385" stop-color="#FFF44F" stop-opacity="0.8"/>
<stop offset="0.376902" stop-color="#FFF44F" stop-opacity="0.27"/>
<stop offset="0.650341" stop-color="#FFF44F" stop-opacity="0.52"/>
</linearGradient>
<linearGradient id="paint5_linear_200_642" x1="122" y1="197.5" x2="104" y2="79.4999" gradientUnits="userSpaceOnUse">
<stop offset="0.0127967" stop-color="#004C7F"/>
<stop offset="0.91" stop-color="#61B4FF"/>
</linearGradient>
<radialGradient id="paint6_radial_200_642" cx="0" cy="0" r="1" gradientTransform="matrix(18.8295 133.861 -154.48 21.6245 93.6701 84.1083)" gradientUnits="userSpaceOnUse">
<stop offset="0.152442" stop-color="#228CFF"/>
<stop offset="0.856353" stop-color="#004572"/>
<stop offset="1" stop-color="#106CCD"/>
</radialGradient>
<linearGradient id="paint7_linear_200_642" x1="103.085" y1="172.742" x2="238.657" y2="28.6032" gradientUnits="userSpaceOnUse">
<stop offset="0.308911" stop-color="#1C7EE1" stop-opacity="0"/>
<stop offset="1" stop-color="#1A7CE0"/>
</linearGradient>
<radialGradient id="paint8_radial_200_642" cx="0" cy="0" r="1" gradientUnits="userSpaceOnUse" gradientTransform="translate(105.551 16.2032) rotate(102.69) scale(129.971 130.433)">
<stop offset="0.1" stop-color="#2598FF"/>
<stop offset="0.951923" stop-color="#004C7F"/>
</radialGradient>
</defs>
</svg>
