<svg width="172" height="42" viewBox="0 0 172 42" fill="none" xmlns="http://www.w3.org/2000/svg">
<path d="M0 2.0048H25.345V7.73125H7.45159V18.8823H21.1903V24.6088H7.45159V39.6126H0V2V2.0048ZM30.6689 12.552H37.9193V39.6222H30.6689V12.552ZM44.5083 12.552H51.15V17.4207H51.912C52.5541 15.662 53.4837 14.3634 54.7009 13.5152C55.9516 12.6383 57.5378 12.1974 59.4642 12.1974H63.6716V17.7226H56.474C54.8543 17.7226 53.6515 18.1779 52.8751 19.0931C52.0988 20.0036 51.7107 21.5275 51.7107 23.6551V39.6222H44.5131V12.552H44.5083ZM30.367 2.0048H38.226V7.73125H30.367V2.0048ZM78.6227 40.1253C74.3961 40.1253 71.104 38.9081 68.7367 36.4738C66.403 34.0059 65.2386 30.5413 65.2386 26.0799C65.2386 21.6185 66.403 18.1731 68.7367 15.7387C71.104 13.2708 74.3961 12.0393 78.6227 12.0393C82.8492 12.0393 85.9401 13.1702 88.2019 15.4368C90.4686 17.7035 91.5995 20.9093 91.5995 25.0688V27.5031H72.8435V28.059C72.8435 30.5269 73.2988 32.3527 74.214 33.5315C75.1581 34.6816 76.6292 35.2566 78.6227 35.2566C80.2424 35.2566 81.4596 34.9356 82.2742 34.2934C83.1176 33.6177 83.5393 32.9085 83.5393 32.1658V31.9645H90.9382C90.1619 34.6001 88.7099 36.6271 86.5774 38.0456C84.4833 39.4305 81.8285 40.1253 78.6179 40.1253H78.6227ZM84.4019 22.9411C84.2677 20.8135 83.7262 19.2561 82.7822 18.2785C81.8717 17.2626 80.482 16.7594 78.6275 16.7594C76.773 16.7594 75.3641 17.2674 74.4201 18.2785C73.5096 19.2609 72.9825 20.8135 72.8483 22.9411H84.4067H84.4019ZM98.5958 17.3153H93.9811V12.552H98.5958V6.36552C98.5958 4.98063 98.9696 3.91681 99.7124 3.17405C100.489 2.39774 101.605 2.00958 103.057 2.00958H114.007V6.77285H105.846V12.552H114.007V17.3153H105.846V39.6174H98.5958V17.3153ZM129.212 40.1253C124.952 40.1253 121.626 38.9081 119.225 36.4738C116.825 34.0059 115.627 30.5413 115.627 26.0799C115.627 21.6185 116.825 18.1731 119.225 15.7387C121.626 13.2708 124.952 12.0393 129.212 12.0393C133.472 12.0393 136.783 13.2708 139.146 15.7387C141.547 18.1731 142.745 21.6185 142.745 26.0799C142.745 30.5413 141.547 34.0059 139.146 36.4738C136.779 38.9081 133.467 40.1253 129.212 40.1253ZM129.212 35.2614C131.239 35.2614 132.725 34.6864 133.673 33.5363C134.656 32.3527 135.145 30.5269 135.145 28.0638V24.1104C135.145 21.6425 134.656 19.8359 133.673 18.6858C132.729 17.5022 131.239 16.9128 129.212 16.9128C127.185 16.9128 125.68 17.5022 124.703 18.6858C123.72 19.8359 123.232 21.6425 123.232 24.1104V28.0638C123.232 30.5317 123.72 32.3575 124.703 33.5363C125.685 34.6864 127.185 35.2614 129.212 35.2614ZM152.631 25.6822L143.914 12.552H151.418L157.552 22.184H158.108L164.242 12.552H171.54L162.823 25.6822L172 39.6222H164.596L157.955 29.1803H157.399L150.757 39.6222H143.459L152.635 25.6822H152.631Z" fill="black"/>
</svg>
