<!-- This Source Code Form is subject to the terms of the Mozilla Public
   - License, v. 2.0. If a copy of the MPL was not distributed with this
   - file, You can obtain one at http://mozilla.org/MPL/2.0/. -->
<svg width="680" height="92" viewBox="0 0 680 92" fill="none" xmlns="http://www.w3.org/2000/svg">
<g clip-path="url(#clip0_622_162)">
<rect width="680" height="92" fill="#033356"/>
<path d="M680 0H0V92H680V0Z" fill="#02223C"/>
<g clip-path="url(#clip1_622_162)">
<g clip-path="url(#clip2_622_162)">
<path d="M445.436 82.0456C455.015 76.43 465.34 72.1903 476.106 69.4518C477.285 68.5328 478.441 67.689 479.532 67.0024C536.19 31.3366 591.449 72.8959 595.365 75.9401C573.961 28.8086 533.555 -8.5344 482.955 -14.1919C417.424 -6.43767 382.727 27.2873 321.949 46.0901C318.876 47.0386 315.796 47.9896 312.584 48.8596C310.945 49.3014 309.289 49.6805 307.62 49.9961C304.617 50.6486 301.548 50.9492 298.475 50.8919C298.34 50.8501 298.195 50.8603 298.067 50.9203C297.939 50.9803 297.838 51.0859 297.784 51.2162C297.713 51.3346 297.676 51.4708 297.678 51.6091C297.681 51.6415 297.703 51.6943 297.707 51.7289C297.713 51.78 297.739 51.8497 297.753 51.9058C299.43 61.0411 362.631 129.572 445.436 82.0456V82.0456Z" fill="url(#paint0_radial_622_162)"/>
<path d="M477.644 -37.8947C453.25 -34.7005 424.588 -22.6457 413.191 -10.1881C439.514 -15.7367 464.569 -16.3042 482.596 -14.2448C482.63 -14.2357 482.718 -14.2259 482.956 -14.1917C417.424 -6.43775 382.727 27.2872 321.949 46.09C318.876 47.0385 315.796 47.9895 312.584 48.8594C310.945 49.3012 309.289 49.6804 307.62 49.996C304.617 50.6485 301.548 50.9491 298.475 50.8918C298.34 50.85 298.195 50.8602 298.067 50.9202C297.939 50.9802 297.838 51.0857 297.784 51.2161C297.713 51.3345 297.676 51.4707 297.678 51.609C297.681 51.6414 297.703 51.6942 297.707 51.7288C297.713 51.7799 297.739 51.8496 297.753 51.9056C297.727 51.8737 297.67 51.8058 297.657 51.7865C314.303 112.693 366.578 145.91 394.702 155.241C395.192 152.756 395.645 150.269 396.316 147.786C406.928 108.535 437.794 80.1722 474.794 70.4987C463.902 79.5594 450.718 97.4855 448.865 117.677C506.951 52.5255 631.398 107.723 598.28 210.757C595.388 219.948 591.13 228.654 585.649 236.584C584.308 238.447 582.913 240.271 581.467 242.055C580.608 243.091 579.744 244.125 578.824 245.129C578.864 245.095 578.912 245.046 578.95 245.01C578.18 245.901 577.398 246.781 576.604 247.65C577.337 246.797 578.099 246.015 578.82 245.131C558.665 267.135 527.932 281.511 496.83 275.965C496.83 275.965 463.358 256.585 479.454 197.046C481.195 190.61 468.173 167.363 463.046 165.617C461.321 165.236 436.944 197.766 419.077 208.196C409.531 213.769 404.943 216.4 401.37 218.862C399.436 220.2 397.576 221.641 395.8 223.181C377.78 223.449 360.018 218.884 344.368 209.963C348.367 234.114 359.356 255.02 369.765 270.87L369.739 270.967C356.961 276.43 322.368 266.488 315.241 264.061C314.764 264.04 316.736 271.106 317.066 272.051C320.324 280.786 324.351 289.216 329.099 297.242C334.438 306.357 340.531 315.011 347.312 323.115C347.322 323.118 347.333 323.127 347.342 323.134C347.331 323.13 347.321 323.121 347.312 323.115C362.79 341.726 381.811 357.092 403.275 368.323C403.703 368.546 404.151 368.757 404.583 368.978C406.324 369.869 415.218 374.165 417.162 374.954C417.013 374.894 417.311 375.015 417.162 374.954C426.411 379.178 435.908 382.841 445.599 385.923C445.957 386.02 446.306 386.137 446.664 386.233C562.518 417.428 681.782 348.973 713.044 233.341C741.042 129.783 688.959 23.5151 594.563 -19.961C591.973 -21.0387 589.351 -22.0495 586.726 -23.0917C551.875 -36.9404 512.811 -42.4985 477.644 -37.8947ZM482.802 -14.223C482.879 -14.2135 482.96 -14.2057 483.037 -14.197L483.013 -14.1962L482.802 -14.223Z" fill="url(#paint1_linear_622_162)"/>
</g>
</g>
<g filter="url(#filter0_dd_622_162)">
<path d="M190 5H32C29.7909 5 28 6.79086 28 9V35C28 37.2091 29.7909 39 32 39H190C192.209 39 194 37.2091 194 35V9C194 6.79086 192.209 5 190 5Z" fill="#033356"/>
</g>
<path d="M170 20H53C51.8954 20 51 20.8954 51 22C51 23.1046 51.8954 24 53 24H170C171.105 24 172 23.1046 172 22C172 20.8954 171.105 20 170 20Z" fill="white"/>
<path d="M340 20H223C221.895 20 221 20.8954 221 22C221 23.1046 221.895 24 223 24H340C341.105 24 342 23.1046 342 22C342 20.8954 341.105 20 340 20Z" fill="white"/>
<path d="M680 44H0V92H680V44Z" fill="#033356"/>
<path d="M24 74.25C27.4518 74.25 30.25 71.4518 30.25 68C30.25 64.5482 27.4518 61.75 24 61.75C20.5482 61.75 17.75 64.5482 17.75 68C17.75 71.4518 20.5482 74.25 24 74.25Z" stroke="white" stroke-width="1.5"/>
<path d="M60 74.25C63.4518 74.25 66.25 71.4518 66.25 68C66.25 64.5482 63.4518 61.75 60 61.75C56.5482 61.75 53.75 64.5482 53.75 68C53.75 71.4518 56.5482 74.25 60 74.25Z" stroke="white" stroke-width="1.5"/>
<path d="M663 73.75H649" stroke="white" stroke-width="1.5"/>
<path d="M663 67.75H649" stroke="white" stroke-width="1.5"/>
<path d="M663 61.75H649" stroke="white" stroke-width="1.5"/>
<path d="M598 52H118C115.791 52 114 53.7909 114 56V80C114 82.2091 115.791 84 118 84H598C600.209 84 602 82.2091 602 80V56C602 53.7909 600.209 52 598 52Z" fill="#101934"/>
<path d="M130 74.25C133.452 74.25 136.25 71.4518 136.25 68C136.25 64.5482 133.452 61.75 130 61.75C126.548 61.75 123.75 64.5482 123.75 68C123.75 71.4518 126.548 74.25 130 74.25Z" stroke="white" stroke-width="1.5"/>
<path d="M452 66H148C146.895 66 146 66.8954 146 68C146 69.1046 146.895 70 148 70H452C453.105 70 454 69.1046 454 68C454 66.8954 453.105 66 452 66Z" fill="white"/>
</g>
<defs>
<filter id="filter0_dd_622_162" x="24" y="1" width="174" height="42" filterUnits="userSpaceOnUse" color-interpolation-filters="sRGB">
<feFlood flood-opacity="0" result="BackgroundImageFix"/>
<feColorMatrix in="SourceAlpha" type="matrix" values="0 0 0 0 0 0 0 0 0 0 0 0 0 0 0 0 0 0 127 0" result="hardAlpha"/>
<feOffset/>
<feGaussianBlur stdDeviation="2"/>
<feColorMatrix type="matrix" values="0 0 0 0 0.227451 0 0 0 0 0.498039 0 0 0 0 0.694118 0 0 0 1 0"/>
<feBlend mode="normal" in2="BackgroundImageFix" result="effect1_dropShadow_622_162"/>
<feColorMatrix in="SourceAlpha" type="matrix" values="0 0 0 0 0 0 0 0 0 0 0 0 0 0 0 0 0 0 127 0" result="hardAlpha"/>
<feOffset/>
<feGaussianBlur stdDeviation="0.5"/>
<feColorMatrix type="matrix" values="0 0 0 0 0.501961 0 0 0 0 0.501961 0 0 0 0 0.556863 0 0 0 0.9 0"/>
<feBlend mode="normal" in2="effect1_dropShadow_622_162" result="effect2_dropShadow_622_162"/>
<feBlend mode="normal" in="SourceGraphic" in2="effect2_dropShadow_622_162" result="shape"/>
</filter>
<radialGradient id="paint0_radial_622_162" cx="0" cy="0" r="1" gradientTransform="matrix(232.23 10.0938 -216.868 995.021 372.605 293.141)" gradientUnits="userSpaceOnUse">
<stop stop-color="#106CCD"/>
<stop offset="0.3" stop-color="#2598FF"/>
<stop offset="0.57" stop-color="#004572"/>
<stop offset="0.74" stop-color="#004572"/>
</radialGradient>
<linearGradient id="paint1_linear_622_162" x1="374.5" y1="7.89988" x2="595.509" y2="356.398" gradientUnits="userSpaceOnUse">
<stop offset="0.115385" stop-color="#004572"/>
<stop offset="0.376902" stop-color="#2598FF" stop-opacity="0"/>
<stop offset="0.650341" stop-color="#61B4FF" stop-opacity="0"/>
</linearGradient>
<clipPath id="clip0_622_162">
<rect width="680" height="92" fill="white"/>
</clipPath>
<clipPath id="clip1_622_162">
<rect width="427" height="52" fill="white" transform="translate(265 -2)"/>
</clipPath>
<clipPath id="clip2_622_162">
<rect width="462.08" height="462.895" fill="white" transform="matrix(0.260988 -0.965342 0.965609 0.259998 219.661 340.065)"/>
</clipPath>
</defs>
</svg>
