<!-- This Source Code Form is subject to the terms of the Mozilla Public
   - License, v. 2.0. If a copy of the MPL was not distributed with this
   - file, You can obtain one at http://mozilla.org/MPL/2.0/. -->

<svg width="268" height="117" viewBox="0 0 268 117" fill="context-fill" xmlns="http://www.w3.org/2000/svg">
<path d="M127.745 84.5586C133.74 84.5586 137.466 89.3226 137.466 97.6172C137.466 105.912 133.784 110.684 127.745 110.684C124.205 110.684 121.892 109.078 120.665 105.778H119.341C119.668 108.751 119.81 110.26 119.81 111.627V116.437H114.998V85.0342H119.11V89.7461H120.383C121.707 86.2531 124.109 84.5587 127.745 84.5586ZM183.518 84.5732C190.077 84.5732 193.141 87.0706 194.086 92.875H189.274V92.6377C189.274 90.4674 187.906 88.3486 183.518 88.3486C180.074 88.3486 178.089 89.5755 178.089 91.835C178.089 93.5815 179.13 94.384 181.956 95.0381L187.103 96.168C191.966 97.2977 194.131 99.2821 194.131 102.961C194.131 107.866 190.353 110.698 183.659 110.698C176.966 110.698 173.939 108.201 172.994 102.396L173.001 102.389L177.857 102.345V102.627C177.858 104.797 179.227 106.871 183.659 106.871C187.199 106.871 189.274 105.644 189.274 103.385C189.274 101.69 188.188 100.888 185.31 100.182L180.119 99.0518C175.307 97.9667 173.232 95.9377 173.231 92.2588C173.231 87.3534 176.958 84.5733 183.518 84.5732ZM80.0869 84.5654C87.3978 84.5654 91.2207 88.8101 91.2207 96.6885V98.4346H73.6689V99C73.669 104.373 75.6545 106.781 80.0869 106.781C84.5196 106.781 85.8887 104.329 85.8887 102.582V102.344H90.7969C89.6664 107.814 85.9326 110.69 80.0869 110.69C72.7763 110.69 68.5744 106.068 68.5742 97.625C68.5742 89.1818 72.7761 84.5655 80.0869 84.5654ZM208.916 84.5654C216.227 84.5654 220.05 88.8101 220.05 96.6885V98.4346H202.498V99C202.498 104.373 204.484 106.781 208.916 106.781C213.349 106.781 214.717 104.329 214.717 102.582V102.344H219.626C218.496 107.814 214.762 110.69 208.916 110.69C201.605 110.69 197.403 106.068 197.403 97.625C197.403 89.1818 201.605 84.5655 208.916 84.5654ZM59.1357 85.042H65.792V88.6689H59.1357V106.588H65.792V110.223H57.4844C55.4097 110.222 54.3243 109.093 54.3242 107.02V88.6689H49.46V85.042H54.3242V79.4297H59.1357V85.042ZM168.852 110.223H164.04V88.6689H160.455V85.042H168.852V110.223ZM21.5234 81.7783H4.95996V91.6338H17.9385V95.5508H4.95996V106.112H21.709V110.215H0V77.6758H21.5234V81.7783ZM38.6094 84.5586C43.8449 84.5588 46.582 87.7177 46.582 93.8047V110.215H41.7695V94.748C41.7695 90.3632 40.1187 88.4308 36.4375 88.4307C32.7561 88.4307 31.0596 90.3631 31.0596 94.748V110.215H26.248V85.0342H30.3535V89.4639H31.625C32.8075 86.1193 35.0246 84.5586 38.6094 84.5586ZM111.323 88.6611H105.522C101.796 88.6611 100.146 90.594 100.146 94.9346V110.215H95.333V85.0342H99.4385V89.6055H100.711C101.893 86.2609 103.916 84.7442 107.456 84.7441H111.323V88.6611ZM157.286 88.6611H151.485C147.759 88.6611 146.108 90.594 146.108 94.9346V110.215H141.296V85.0342H145.401V89.6055H146.673C147.855 86.2609 149.879 84.7441 153.419 84.7441H157.286V88.6611ZM126.095 88.4229C121.751 88.4229 119.817 90.8314 119.817 96.2051V99.0371C119.817 104.366 121.803 106.774 126.095 106.774C130.386 106.774 132.371 104.366 132.371 99.0371V96.2051C132.371 90.8316 130.438 88.423 126.095 88.4229ZM80.0869 88.3418C75.9297 88.3419 73.907 90.4597 73.6689 95.2236H86.4609C86.2229 90.4596 84.2443 88.3418 80.0869 88.3418ZM208.909 88.3418C204.752 88.3418 202.728 90.4596 202.49 95.2236H215.282C215.044 90.4598 213.066 88.342 208.909 88.3418ZM169.09 82.1582H163.615V77.6758H169.09V82.1582ZM122.049 59.125H122.041L122.044 59.124C122.046 59.124 122.047 59.125 122.049 59.125ZM200.564 15.5635C207.176 15.5635 212.315 17.4733 215.981 21.3008C219.707 25.0764 221.567 30.4204 221.567 37.3398C221.567 44.2594 219.708 49.6332 215.981 53.4609C212.307 57.2365 207.169 59.125 200.564 59.125C193.953 59.125 188.792 57.2365 185.065 53.4609C181.339 49.6332 179.479 44.2594 179.479 37.3398C179.48 30.4204 181.339 25.0764 185.065 21.3008C188.791 17.4733 193.953 15.5635 200.564 15.5635ZM122.049 15.5635C128.608 15.5635 133.406 17.3175 136.916 20.833C140.434 24.3485 142.188 29.3205 142.188 35.7715V39.5479H113.079V40.4102C113.079 44.2375 113.786 47.0691 115.206 48.8975C116.671 50.6812 118.955 51.5732 122.049 51.5732C124.563 51.5732 126.452 51.075 127.716 50.0791C129.025 49.0311 129.68 47.9313 129.68 46.7793V46.4668H141.162C139.957 50.5546 137.704 53.6994 134.395 55.8994C131.145 58.0469 127.026 59.1236 122.044 59.124C115.487 59.1231 110.378 57.2357 106.705 53.4609C103.083 49.6333 101.276 44.2592 101.276 37.3398C101.276 30.4205 103.083 25.0764 106.705 21.3008C110.379 17.4731 115.489 15.5635 122.049 15.5635ZM58.876 58.3447H47.624V16.3584H58.876V58.3447ZM98.8447 24.3779H87.6738C85.16 24.3779 83.2927 25.0843 82.0879 26.5039C80.8832 27.916 80.2813 30.2794 80.2812 33.5791V58.3447H69.1104V16.3584H79.4102V23.9102H80.5928C81.5894 21.1825 83.0328 19.1681 84.9219 17.8525C86.863 16.4924 89.3247 15.8086 92.3145 15.8086H98.8447V24.3779ZM244.549 31.2979H245.411L254.931 16.3584H266.258L252.729 36.7236L266.972 58.3447H255.481L245.173 42.1494H244.311L234.002 58.3447H222.676L236.918 36.7236H236.91L223.382 16.3584H235.028L244.549 31.2979ZM176.966 7.39453H164.3V16.3584H176.966V23.7461H164.3V58.3369H153.047V23.7461H145.886V16.3584H153.047V6.7627C153.047 4.61504 153.628 2.96541 154.78 1.81348C155.985 0.609422 157.718 0.00683594 159.972 0.00683594H176.966V7.39453ZM0.0244141 0H39.3604V8.88184H11.5898V26.1768H32.9121V35.0586H11.5898V58.3291H0.0244141V0ZM200.564 23.1221C197.418 23.1221 195.083 24.0363 193.565 25.8721C192.041 27.6558 191.282 30.4578 191.282 34.2852V40.417C191.282 44.2447 192.041 47.0769 193.565 48.9053C195.09 50.6891 197.418 51.5811 200.564 51.5811C203.71 51.581 206.016 50.6889 207.488 48.9053C209.013 47.0695 209.771 44.2373 209.771 40.417V34.2852C209.771 30.4576 209.013 27.6558 207.488 25.8721C206.023 24.0363 203.71 23.1221 200.564 23.1221ZM122.056 22.8838C119.178 22.8839 116.991 23.6721 115.526 25.2402C114.113 26.7638 113.295 29.1718 113.087 32.4717H131.019C130.81 29.1718 129.969 26.7564 128.504 25.2402C127.091 23.6647 124.934 22.8838 122.056 22.8838ZM59.3525 8.88184H47.1553V0H59.3525V8.88184Z" />
</svg>
